<svg height="800" viewBox="0 0 463 463" width="800" xmlns="http://www.w3.org/2000/svg"><path d="m383.502 136h-109.408c7.994-8.504 12.906-19.936 12.906-32.5 0-26.191-21.309-47.5-47.5-47.5-12.564 0-23.996 4.912-32.5 12.906v-61.406c0-4.142-3.357-7.5-7.5-7.5s-7.5 3.358-7.5 7.5v96c0 26.191 21.309 47.5 47.5 47.5h.001 122.096c-1.027 2.638-1.597 5.503-1.597 8.5s.57 5.862 1.597 8.5h-202.097c-12.958 0-23.5 10.542-23.5 23.5s10.542 23.5 23.5 23.5h122.097c-1.027 2.638-1.597 5.503-1.597 8.5s.57 5.862 1.597 8.5h-170.097c-30.603 0-55.5 24.897-55.5 55.5 0 30.558 24.825 55.424 55.366 55.497.046.001.09.007.135.007h109.402c-7.992 8.503-12.903 19.933-12.903 32.496 0 26.191 21.309 47.5 47.5 47.5 12.564 0 23.996-4.912 32.5-12.906v45.406c0 4.142 3.357 7.5 7.5 7.5s7.5-3.358 7.5-7.5v-80c0-26.191-21.309-47.5-47.5-47.5-.045 0-.09.003-.135.003h-105.979c10.828-10.134 17.614-24.537 17.614-40.503 0-15.964-6.784-30.366-17.61-40.5h154.11c12.958 0 23.5-10.542 23.5-23.5s-10.542-23.5-23.5-23.5h-122.097c1.027-2.638 1.597-5.503 1.597-8.5s-.57-5.862-1.597-8.5h202.097c12.958 0 23.5-10.542 23.5-23.5 0-12.957-10.541-23.499-23.498-23.5zm-95.502 239.5c0 17.92-14.579 32.5-32.5 32.5s-32.5-14.58-32.5-32.5c0-17.875 14.506-32.423 32.365-32.497h.136c.015 0 .03-.002.045-.002 17.9.025 32.454 14.594 32.454 32.499zm-136-88c0 22.332-18.168 40.5-40.5 40.5s-40.5-18.168-40.5-40.5 18.168-40.5 40.5-40.5 40.5 18.168 40.5 40.5zm55-184c0-17.92 14.579-32.5 32.5-32.5s32.5 14.58 32.5 32.5-14.579 32.5-32.5 32.5-32.5-14.58-32.5-32.5zm96.5 128.5c-4.687 0-8.5-3.813-8.5-8.5s3.813-8.5 8.5-8.5 8.5 3.813 8.5 8.5-3.813 8.5-8.5 8.5zm-135.5-40.5c0 4.687-3.813 8.5-8.5 8.5s-8.5-3.813-8.5-8.5 3.813-8.5 8.5-8.5 8.5 3.813 8.5 8.5zm215.5-23.5c-4.687 0-8.5-3.813-8.5-8.5s3.813-8.5 8.5-8.5 8.5 3.813 8.5 8.5-3.813 8.5-8.5 8.5z"/><path d="m254 103.5c0-7.995-6.505-14.5-14.5-14.5s-14.5 6.505-14.5 14.5 6.505 14.5 14.5 14.5 14.5-6.505 14.5-14.5z"/><path d="m255.5 360c-8.547 0-15.5 6.953-15.5 15.5s6.953 15.5 15.5 15.5 15.5-6.953 15.5-15.5-6.953-15.5-15.5-15.5z"/><path d="m111.5 311c12.958 0 23.5-10.542 23.5-23.5s-10.542-23.5-23.5-23.5-23.5 10.542-23.5 23.5 10.542 23.5 23.5 23.5zm0-32c4.687 0 8.5 3.813 8.5 8.5s-3.813 8.5-8.5 8.5-8.5-3.813-8.5-8.5 3.813-8.5 8.5-8.5z"/></svg>