<svg height="800" viewBox="0 0 463 463" width="800" xmlns="http://www.w3.org/2000/svg"><path d="m423.5 316h-.5v-24.5c0-4.143-3.358-7.5-7.5-7.5h-8.5v-54.396c0-13.989-9.395-26.444-22.847-30.289l-25.153-7.186v-11.531c5.054-4.43 8-10.831 8-17.66v-23.938h8.5c4.142 0 7.5-3.357 7.5-7.5s-3.358-7.5-7.5-7.5h-.5v-.5c0-23.639-17.36-43.295-40-46.902v-1.098c0-4.143-3.358-7.5-7.5-7.5s-7.5 3.357-7.5 7.5v1.098c-22.64 3.607-40 23.263-40 46.902v.5h-.5c-4.142 0-7.5 3.357-7.5 7.5s3.358 7.5 7.5 7.5h8.5v23.937c0 6.829 2.945 13.23 8 17.659v11.532l-25.155 7.187c-13.45 3.844-22.845 16.299-22.845 30.289v86.396h-9v-40.5c0-4.143-3.358-7.5-7.5-7.5h-16.5v-38.396c0-13.989-9.395-26.444-22.847-30.289l-25.153-7.186v-11.531c5.054-4.43 8-10.831 8-17.66v-23.938h8.5c4.142 0 7.5-3.357 7.5-7.5s-3.358-7.5-7.5-7.5h-.5v-.5c0-23.639-17.36-43.295-40-46.902v-1.098c0-4.143-3.358-7.5-7.5-7.5s-7.5 3.357-7.5 7.5v1.098c-22.64 3.607-40 23.263-40 46.902v.5h-.5c-4.142 0-7.5 3.357-7.5 7.5s3.358 7.5 7.5 7.5h8.5v23.937c0 6.829 2.945 13.23 8 17.659v11.532l-25.155 7.187c-13.45 3.844-22.845 16.299-22.845 30.289v86.396h-16.5c-21.78 0-39.5 17.72-39.5 39.5s17.72 39.5 39.5 39.5h384c21.78 0 39.5-17.72 39.5-39.5s-17.72-39.5-39.5-39.5zm-15.5 0h-81v-17h81zm-113 0v-72.5c0-.275.224-.5.5-.5h64c.276 0 .5.225.5.5v40.5h-40.5c-4.142 0-7.5 3.357-7.5 7.5v24.5zm16.312-124.945c3.873 2.581 8.38 3.945 13.035 3.945h6.312c4.654 0 9.162-1.365 13.037-3.947l.306-.204v6.955c0 .072-.002.145 0 .216v1.983c-1.424 1.289-6.962 3.997-16.5 3.997s-15.076-2.708-16.5-3.997v-9.156zm-8.312 36.945v-15.215c5.588 3.898 14.175 6.215 24.5 6.215s18.912-2.317 24.5-6.215v15.215zm89 1.604v54.396h-17v-40.5c0-5.827-3.235-10.908-8-13.555v-19.931l13.033 3.723c7.046 2.014 11.967 8.538 11.967 15.867zm-32-106.104v.5h-.5-24.5v-32.117c14.315 3.396 25 16.278 25 31.617zm-65 0c0-15.339 10.685-28.221 25-31.617v32.117h-24.5-.5zm57 15.5v23.938c0 2.848-1.415 5.492-3.785 7.072l-12.841 8.562c-1.402.935-3.033 1.429-4.716 1.429h-6.312c-1.684 0-3.314-.493-4.715-1.427l-12.846-8.563c-2.371-1.58-3.786-4.225-3.786-7.073v-23.938zm-89 90.604c0-7.328 4.921-13.853 11.967-15.866l13.033-3.725v19.932c-4.765 2.647-8 7.728-8 13.555v72.5h-17zm-39 86.396h-81v-33h81zm-121 0v-72.5c0-.275.224-.5.5-.5h64c.276 0 .5.225.5.5v24.5h-32.5c-4.142 0-7.5 3.357-7.5 7.5v40.5zm16.312-124.945c3.873 2.581 8.38 3.945 13.035 3.945h6.312c4.654 0 9.162-1.365 13.037-3.947l.306-.204v6.955c0 .072-.002.145 0 .216v1.983c-1.424 1.289-6.962 3.997-16.5 3.997s-15.076-2.708-16.5-3.997v-9.156zm-8.312 36.945v-15.215c5.588 3.898 14.175 6.215 24.5 6.215s18.912-2.317 24.5-6.215v15.215zm89 1.604v38.396h-17v-24.5c0-5.827-3.235-10.908-8-13.555v-19.931l13.033 3.723c7.046 2.014 11.967 8.538 11.967 15.867zm-32-106.104v.5h-.5-24.5v-32.117c14.315 3.396 25 16.278 25 31.617zm-65 0c0-15.339 10.685-28.221 25-31.617v32.117h-24.5-.5zm57 15.5v23.938c0 2.848-1.415 5.492-3.785 7.072l-12.841 8.562c-1.402.935-3.033 1.429-4.716 1.429h-6.312c-1.684 0-3.314-.493-4.715-1.427l-12.846-8.563c-2.371-1.58-3.786-4.225-3.786-7.073v-23.938zm-89 90.604c0-7.328 4.921-13.853 11.967-15.866l13.033-3.725v19.932c-4.765 2.647-8 7.728-8 13.555v72.5h-17zm352.5 150.396h-384c-13.509 0-24.5-10.99-24.5-24.5s10.991-24.5 24.5-24.5h384c13.509 0 24.5 10.99 24.5 24.5s-10.991 24.5-24.5 24.5z"/><path d="m231.5 341c-7.995 0-14.5 6.505-14.5 14.5s6.505 14.5 14.5 14.5 14.5-6.505 14.5-14.5-6.505-14.5-14.5-14.5z"/><path d="m183.5 341c-7.995 0-14.5 6.505-14.5 14.5s6.505 14.5 14.5 14.5 14.5-6.505 14.5-14.5-6.505-14.5-14.5-14.5z"/><path d="m135.5 341c-7.995 0-14.5 6.505-14.5 14.5s6.505 14.5 14.5 14.5 14.5-6.505 14.5-14.5-6.505-14.5-14.5-14.5z"/><path d="m39.5 341c-7.995 0-14.5 6.505-14.5 14.5s6.505 14.5 14.5 14.5 14.5-6.505 14.5-14.5-6.505-14.5-14.5-14.5z"/><path d="m87.5 341c-7.995 0-14.5 6.505-14.5 14.5s6.505 14.5 14.5 14.5 14.5-6.505 14.5-14.5-6.505-14.5-14.5-14.5z"/><path d="m423.5 341c-7.995 0-14.5 6.505-14.5 14.5s6.505 14.5 14.5 14.5 14.5-6.505 14.5-14.5-6.505-14.5-14.5-14.5z"/><path d="m375.5 341c-7.995 0-14.5 6.505-14.5 14.5s6.505 14.5 14.5 14.5 14.5-6.505 14.5-14.5-6.505-14.5-14.5-14.5z"/><path d="m279.5 341c-7.995 0-14.5 6.505-14.5 14.5s6.505 14.5 14.5 14.5 14.5-6.505 14.5-14.5-6.505-14.5-14.5-14.5z"/><path d="m327.5 341c-7.995 0-14.5 6.505-14.5 14.5s6.505 14.5 14.5 14.5 14.5-6.505 14.5-14.5-6.505-14.5-14.5-14.5z"/></svg>