<svg xmlns="http://www.w3.org/2000/svg" width="192" height="80" viewBox="0 0 192 80"><g fill="#282828"><path d="M66.448 73.551c-.071-1.361-.159-3.014-.159-4.217h-.028a76.21 76.21 0 0 1-1.232 3.71l-1.725 4.739h-.957l-1.594-4.653c-.464-1.391-.841-2.637-1.116-3.796h-.027c-.029 1.216-.102 2.84-.189 4.318l-.261 4.188h-1.203l.68-9.768h1.609l1.666 4.724c.407 1.204.725 2.274.986 3.291h.028c.261-.985.609-2.06 1.043-3.291l1.739-4.724h1.609l.609 9.768H66.68l-.232-4.289zM78.363 72.855c0 3.349-2.042 5.145-4.535 5.145-2.594 0-4.39-2.014-4.39-4.971 0-3.102 1.912-5.129 4.52-5.129 2.682 0 4.405 2.043 4.405 4.955zm-7.593.146c0 2.101 1.13 3.969 3.13 3.969s3.13-1.839 3.13-4.056c0-1.957-1.014-3.987-3.116-3.987-2.1.001-3.144 1.944-3.144 4.074zM82.293 77.841l-3.203-9.768h1.377l1.521 4.812c.407 1.319.768 2.508 1.043 3.651h.029c.275-1.13.666-2.362 1.116-3.638l1.651-4.825h1.348l-3.492 9.768h-1.39zM93.656 73.261h-3.783v3.523h4.232v1.057h-5.508v-9.768h5.29v1.059h-4.014v3.087h3.783v1.042zM104.322 73.551c-.071-1.361-.159-3.014-.159-4.217h-.028a75.141 75.141 0 0 1-1.232 3.71l-1.725 4.739h-.957l-1.594-4.653c-.464-1.391-.841-2.637-1.115-3.796h-.029c-.028 1.216-.102 2.84-.188 4.318l-.261 4.188H95.83l.68-9.768h1.609l1.666 4.724a46.07 46.07 0 0 1 .986 3.291h.027c.262-.985.609-2.06 1.043-3.291l1.739-4.724h1.608l.609 9.768h-1.248l-.227-4.289zM112.934 73.261h-3.783v3.523h4.232v1.057h-5.508v-9.768h5.29v1.059h-4.015v3.087h3.783v1.042zM115.167 77.841v-9.768h1.392l3.114 4.942c.709 1.145 1.291 2.172 1.739 3.172l.043-.014c-.116-1.305-.145-2.492-.145-4.014v-4.087h1.188v9.768h-1.274l-3.102-4.956c-.682-1.087-1.332-2.203-1.812-3.262l-.043.016c.073 1.232.088 2.405.088 4.028v4.174h-1.188zM126.848 69.146h-2.97v-1.073h7.231v1.073h-2.985v8.694h-1.276v-8.694zM137.126 76.305a4.278 4.278 0 0 0 2.246.637c1.291 0 2.044-.682 2.044-1.666 0-.899-.521-1.434-1.839-1.928-1.595-.58-2.58-1.421-2.58-2.781 0-1.523 1.261-2.653 3.16-2.653.985 0 1.723.231 2.144.478l-.348 1.03c-.305-.188-.957-.464-1.84-.464-1.334 0-1.84.798-1.84 1.464 0 .914.594 1.362 1.94 1.884 1.652.637 2.478 1.435 2.478 2.869 0 1.508-1.1 2.826-3.404 2.826-.941 0-1.971-.289-2.492-.637l.331-1.059zM146.75 77.841v-4.144l-3.102-5.624h1.449l1.377 2.696c.361.738.666 1.332.971 2.014h.027c.262-.637.609-1.275.986-2.014l1.404-2.696h1.422l-3.26 5.608v4.159h-1.274zM152.229 76.305a4.278 4.278 0 0 0 2.246.637c1.291 0 2.043-.682 2.043-1.666 0-.899-.521-1.434-1.838-1.928-1.596-.58-2.58-1.421-2.58-2.781 0-1.523 1.26-2.653 3.159-2.653.985 0 1.724.231 2.144.478l-.348 1.03c-.305-.188-.957-.464-1.839-.464-1.334 0-1.841.798-1.841 1.464 0 .914.594 1.362 1.941 1.884 1.651.637 2.478 1.435 2.478 2.869 0 1.508-1.101 2.826-3.405 2.826-.941 0-1.971-.289-2.492-.637l.332-1.059zM161.534 69.146h-2.97v-1.073h7.231v1.073h-2.985v8.694h-1.276v-8.694zM172.303 73.261h-3.783v3.523h4.232v1.057h-5.508v-9.768h5.29v1.059h-4.015v3.087h3.783v1.042zM182.955 73.551c-.071-1.361-.159-3.014-.159-4.217h-.028a76.128 76.128 0 0 1-1.231 3.71l-1.726 4.739h-.957l-1.594-4.653c-.464-1.391-.841-2.637-1.115-3.796h-.028c-.029 1.216-.103 2.84-.188 4.318l-.262 4.188h-1.203l.68-9.768h1.609l1.666 4.724c.407 1.204.725 2.274.986 3.291h.027c.262-.985.609-2.06 1.043-3.291l1.739-4.724h1.608l.609 9.768h-1.248l-.228-4.289zM186.436 76.305a4.28 4.28 0 0 0 2.248.637c1.289 0 2.041-.682 2.041-1.666 0-.899-.521-1.434-1.838-1.928-1.595-.58-2.58-1.421-2.58-2.781 0-1.523 1.26-2.653 3.159-2.653.985 0 1.724.231 2.144.478l-.348 1.03c-.305-.188-.955-.464-1.839-.464-1.334 0-1.841.798-1.841 1.464 0 .914.594 1.362 1.941 1.884 1.651.637 2.478 1.435 2.478 2.869 0 1.508-1.101 2.826-3.405 2.826-.941 0-1.971-.289-2.492-.637l.332-1.059z" fill="#ffffff"/></g><path fill="#006cb7" d="M132.919 31.675a4.153 4.153 0 0 0 0 8.305 4.152 4.152 0 1 0 0-8.305m0 18.173c-7.737 0-14.015-6.279-14.015-14.02 0-7.742 6.277-14.021 14.015-14.021 7.744 0 14.022 6.278 14.022 14.021 0 7.74-6.278 14.02-14.022 14.02zM78.663 31.675h-1.04a4.153 4.153 0 0 0-4.153 4.153v13.5h-9.903l.002-13.5c.005-7.742 6.269-14.019 13.973-14.019h1.121v9.866zM41.538 49.848c-7.742 0-14.017-6.279-14.017-14.02 0-7.742 6.275-14.021 14.017-14.021 7.742 0 14.021 6.278 14.021 14.021-.001 7.74-6.279 14.02-14.021 14.02zm91.383-32.195c-9.31 0-16.979 7.005-18.044 16.032-1.059-9.027-8.727-16.032-18.044-16.032v-13.5h-4.151v31.675a4.15 4.15 0 0 0 4.151 4.152 4.152 4.152 0 1 0 0-8.305v-9.868c7.748 0 14.022 6.278 14.022 14.021 0 7.74-6.275 14.02-14.022 14.02-7.741 0-14.017-6.279-14.017-14.02V4.153h-4.153v13.5h-1.121c-9.219 0-16.851 6.934-17.98 15.895-1.121-8.961-8.761-15.895-18.024-15.895-1.804 0-3.545.267-5.192.757v-.236C36.331 8.151 28.199 0 18.174 0S.018 8.149 0 18.172v35.311h4.155V18.172c.016-7.726 6.287-14.019 14.019-14.019s14.003 6.292 14.019 14.021h-9.864a4.157 4.157 0 0 0-4.155-4.155 4.153 4.153 0 0 0-4.153 4.153v4.156h15.353a18.142 18.142 0 0 0-5.525 9.347h-9.795l-.034 21.807h4.188V35.828h5.157C23.366 45.863 31.501 54 41.538 54c8.926 0 16.343-6.438 17.879-14.922v14.404h18.207V35.828h1.04C78.663 45.865 86.798 54 96.833 54c9.317 0 16.985-7.003 18.044-16.029C115.941 46.997 123.611 54 132.921 54c10.037 0 18.177-8.137 18.177-18.172 0-10.038-8.141-18.175-18.177-18.175zM41.538 31.675a4.153 4.153 0 1 0 0 8.305 4.153 4.153 0 1 0 0-8.305"/></svg>